<svg xmlns="http://www.w3.org/2000/svg" viewBox="0 0 64 64" role="img" aria-label="RPG hero icon">
  <defs>
    <linearGradient id="bg" x1="0" y1="0" x2="0" y2="1">
      <stop offset="0%" stop-color="#111827" />
      <stop offset="100%" stop-color="#1f2937" />
    </linearGradient>
  </defs>
  <rect width="64" height="64" rx="12" fill="url(#bg)" />
  <path d="M32 12c-5.8 0-10.5 4.7-10.5 10.5S26.2 33 32 33s10.5-4.7 10.5-10.5S37.8 12 32 12z" fill="#fcd34d"/>
  <path d="M24.5 30.5c-4 1.8-6.5 5.5-6.5 10.1V50h28v-9.4c0-4.6-2.5-8.3-6.5-10.1l-7.5 5z" fill="#93c5fd"/>
  <path d="M20 50v4h24v-4c0-2.2-1.8-4-4-4H24c-2.2 0-4 1.8-4 4z" fill="#60a5fa"/>
  <path d="M28 24h8v4h-8z" fill="#1f2937"/>
  <circle cx="28" cy="24" r="2" fill="#1f2937"/>
  <circle cx="36" cy="24" r="2" fill="#1f2937"/>
</svg>
